HIERARCHY
ROOT Hips
{
  OFFSET -158.972 97.8964 105.273
  CHANNELS 6 Xposition Yposition Zposition Zrotation Xrotation Yrotation
  JOINT ToSpine
  {
    OFFSET -0.0105055 1.38907 -7.13956
    CHANNELS 3 Zrotation Xrotation Yrotation
    JOINT Spine
    {
      OFFSET 0.0105055 10 1
      CHANNELS 3 Zrotation Xrotation Yrotation
      JOINT Spine1
      {
        OFFSET 0 12 1.60637
        CHANNELS 3 Zrotation Xrotation Yrotation
        JOINT Neck
        {
          OFFSET 0 27 2.26658
          CHANNELS 3 Zrotation Xrotation Yrotation
          JOINT Head
          {
            OFFSET 0 9 2.12705
            CHANNELS 3 Zrotation Xrotation Yrotation
            End Site
            {
              OFFSET 0 11 2
            }
          }
        }
        JOINT LeftShoulder
        {
          OFFSET 8 19.6109 2.86452
          CHANNELS 3 Zrotation Xrotation Yrotation
          JOINT LeftArm
          {
            OFFSET 12 1 0.681055
            CHANNELS 3 Zrotation Xrotation Yrotation
            JOINT LeftForeArm
            {
              OFFSET 19 0 -1.52608
              CHANNELS 3 Zrotation Xrotation Yrotation
              JOINT LeftHand
              {
                OFFSET 23 0 0
                CHANNELS 3 Zrotation Xrotation Yrotation
                End Site
                {
                  OFFSET 10 0 0
                }
              }
            }
          }
        }
        JOINT RightShoulder
        {
          OFFSET -8 19.6109 2.86452
          CHANNELS 3 Zrotation Xrotation Yrotation
          JOINT RightArm
          {
            OFFSET -12 1 0.681055
            CHANNELS 3 Zrotation Xrotation Yrotation
            JOINT RightForeArm
            {
              OFFSET -19 0 -1.52608
              CHANNELS 3 Zrotation Xrotation Yrotation
              JOINT RightHand
              {
                OFFSET -23 0 0
                CHANNELS 3 Zrotation Xrotation Yrotation
                End Site
                {
                  OFFSET -10 0 0
                }
              }
            }
          }
        }
      }
    }
  }
  JOINT LeftUpLeg
  {
    OFFSET 9 -7.17245 0
    CHANNELS 3 Zrotation Xrotation Yrotation
    JOINT LeftLeg
    {
      OFFSET 0 -44.1113 0
      CHANNELS 3 Zrotation Xrotation Yrotation
      JOINT LeftFoot
      {
        OFFSET 0 -36.1829 0
        CHANNELS 3 Zrotation Xrotation Yrotation
        JOINT LeftToeBase
        {
          OFFSET 0 -4.84184 13
          CHANNELS 3 Zrotation Xrotation Yrotation
          End Site
          {
            OFFSET 0 1 6
          }
        }
      }
    }
  }
  JOINT RightUpLeg
  {
    OFFSET -9 -7.17245 0
    CHANNELS 3 Zrotation Xrotation Yrotation
    JOINT RightLeg
    {
      OFFSET 0 -44.0551 0
      CHANNELS 3 Zrotation Xrotation Yrotation
      JOINT RightFoot
      {
        OFFSET 0 -36.1469 0
        CHANNELS 3 Zrotation Xrotation Yrotation
        JOINT RightToeBase
        {
          OFFSET 0 -4.92256 13
          CHANNELS 3 Zrotation Xrotation Yrotation
          End Site
          {
            OFFSET 0 1 6
          }
        }
      }
    }
  }
}
MOTION
Frames:	14
Frame Time:	0.0333333
-158.972 97.8964 105.273 2.29154 -1.46403 23.1317 0 0 0 2.58784 0.588868 0.906011 -2.91203 4.01019 1.31355 3.54383 3.48847 -6.5674 -0.865472 1.97265 -5.12426 -30.2816 2.89236 -4.4451 -46.2301 22.113 -12.422 -5.25507 -16.3523 -4.95552 -9.44666 0.297728 -3.60219 20.4797 4.03356 11.3994 57.241 13.5395 6.24183 3.54428 -3.89923 9.97936 1.78955 0.0550251 3.52207 2.42351 3.29188 7.85841 0.19108 5.02935 1.42634 -1.91936 -6.79091 -0.113888 0.523209 2.77195 -2.68072 -4.07548 2.94698 -9.16318 0.80981 4.49362 3.38371 -10.2887 0.34859 0.031383 3.84644 -14.3882 -5.82671 
-158.994 97.8954 105.264 2.27303 -1.40762 23.1937 0 0 0 2.43639 0.44894 0.843807 -2.88303 4.16385 1.23667 3.82044 3.316 -6.58343 -1.13547 1.96849 -4.98871 -30.2126 2.87386 -4.40919 -46.1027 22.3457 -12.3359 -5.2804 -16.3945 -5.2462 -8.78303 0.265481 -3.45588 21.0297 4.14653 11.5279 56.6614 13.5327 6.31504 3.61976 -4.20059 9.90005 1.80492 0.0591498 3.75368 2.45542 3.09817 7.88302 0.229496 5.26622 1.27257 -2.17622 -7.27784 -0.138417 0.46155 3.85606 -2.62118 -4.03101 2.88842 -9.08546 0.754991 4.46019 3.18107 -10.1916 0.338128 0.0301523 3.82414 -14.285 -5.68832 
-158.987 97.8851 105.257 2.28793 -1.40927 23.2076 0 0 0 2.43548 0.404611 0.781731 -2.98865 4.26307 1.20743 4.19149 3.16969 -6.61917 -1.37356 2.04077 -4.84862 -30.1719 3.06824 -4.95209 -46.0916 22.2951 -11.6398 -5.45333 -17.8326 -5.93896 -9.5523 0.297163 -3.55544 21.5694 4.21809 11.5103 55.9054 13.7983 6.68468 4.08124 -5.86543 9.46068 2.38144 0.0870779 4.1876 2.36603 3.18878 7.79318 0.271296 5.04328 1.6487 -2.16143 -6.91506 -0.130606 0.749678 3.13769 -3.59581 -4.05735 2.87413 -9.14837 0.813913 4.53459 2.96413 -10.4199 0.0674616 0.00615133 3.81539 -14.2444 -5.60629 
-158.966 97.9417 105.233 2.18219 -1.4701 23.2162 0 0 0 3.51817 -0.218109 0.818235 -4.14814 4.99177 1.50396 4.39407 3.36228 -6.66612 -1.31696 1.79596 -4.84425 -29.3835 3.11018 -5.25426 -46.612 22.0688 -11.9718 -5.43029 -17.8863 -5.57309 -9.74245 0.30108 -3.53168 21.7228 4.29293 11.6962 56.0568 13.8708 6.78135 3.90419 -4.96118 9.4145 1.73597 0.0590254 3.89447 2.43453 3.57725 7.73132 0.261177 4.22758 2.21093 -1.59161 -5.41291 -0.0752429 1.11219 0.034268 -4.66166 -3.97095 2.92025 -9.15813 0.549593 4.58898 3.36137 -7.76229 -1.20646 -0.0818523 3.10235 -11.0319 -5.52804 
-158.987 97.9585 105.227 2.27425 -1.42588 23.1888 0 0 0 2.67126 0.178681 0.800007 -3.11565 4.52845 1.25667 3.93643 2.97197 -6.38782 -1.3674 2.21155 -4.70386 -30.4419 3.08236 -4.92903 -45.8267 22.7129 -11.6389 -5.78635 -19.2403 -6.36441 -10.548 0.305179 -3.30514 21.5643 4.20582 11.4696 55.88 14.1863 6.80251 3.92944 -4.77356 9.46537 1.6709 0.0565239 3.87471 2.34518 3.40552 7.71285 0.39064 4.77575 1.59433 -4.05467 -7.61582 -0.269986 0.388447 5.25843 -2.57239 -4.08794 2.86043 -9.1779 0.649841 4.67335 3.53697 -8.34548 -0.974604 -0.0711059 3.23584 -11.5945 -5.95693 
-158.997 97.9545 105.21 2.25322 -1.41675 23.3495 0 0 0 3.23493 -0.10714 0.769388 -3.85842 4.71925 1.374 4.07259 3.43867 -6.5315 -0.94183 1.79151 -4.90306 -29.7959 3.11763 -5.17624 -46.2784 22.5045 -11.8073 -5.70887 -19.0303 -5.91612 -10.6787 0.311602 -3.33313 21.613 4.25075 11.6034 56.0824 13.8782 6.69783 3.86701 -4.80549 9.4544 1.6885 0.0559148 3.75488 2.36199 3.33358 7.64988 0.416883 4.70578 1.61885 -3.15269 -7.20197 -0.198454 0.673038 4.78201 -3.52412 -4.03661 2.87603 -9.15915 0.648386 4.5887 3.32996 -8.5207 -0.765891 -0.0570554 3.30223 -11.8881 -6.09476 
-158.989 97.9542 105.221 2.31595 -1.55101 23.3282 0 0 0 2.70867 0.368393 0.723889 -3.1551 4.35033 1.1837 4.07292 3.03098 -6.42215 -1.29089 2.28608 -4.70997 -30.085 2.9889 -4.75359 -45.9669 23.1227 -11.7636 -5.90994 -19.6039 -6.34937 -10.7654 0.314161 -3.33327 21.4441 4.15118 11.3364 56.0292 14.244 6.89698 3.93049 -4.62647 9.31081 1.65235 0.0562449 3.82747 2.3471 3.4322 7.65785 0.528233 4.84314 1.82482 -3.57905 -7.38537 -0.231063 0.756701 4.74194 -3.82084 -4.07646 3.03267 -9.231 0.681764 4.63837 3.3207 -8.29402 -1.05463 -0.0764689 3.21807 -11.5324 -5.7631 
-159.02 97.9557 105.228 2.32753 -1.65836 23.3033 0 0 0 2.83983 0.361087 0.745601 -3.34946 4.46469 1.24236 4.09991 3.02276 -6.44973 -1.16306 2.30338 -4.75926 -29.7059 2.91622 -4.63722 -46.3385 22.8212 -11.8748 -5.823 -19.0968 -6.28964 -10.6355 0.300989 -3.23282 21.5956 4.1627 11.3022 55.8774 14.2853 6.95506 3.96488 -4.70067 9.23331 1.70156 0.0572905 3.79313 2.42069 3.46123 7.70005 0.494191 4.97955 1.78958 -3.17705 -7.28598 -0.202328 0.809174 4.393 -3.97061 -4.0136 3.12057 -9.1591 0.655805 4.64796 3.45762 -8.44353 -0.8927 -0.065898 3.25224 -11.6726 -5.9302 
-159.053 97.9437 105.232 2.27839 -1.65859 23.4604 0 0 0 2.94611 0.469989 0.669142 -3.38141 4.156 1.15798 3.93471 3.38376 -6.34606 -1.01274 2.09225 -4.74351 -30.0476 2.95216 -4.66069 -45.9138 23.3046 -11.5574 -5.96467 -19.7122 -6.70952 -10.5342 0.290536 -3.15078 21.5176 4.20402 11.4865 56.0173 14.0716 6.66393 3.96322 -4.94492 9.28801 1.93979 0.0587986 3.7945 2.52482 3.35254 7.79782 0.359093 5.10814 1.44112 -2.28408 -6.91995 -0.138117 0.80139 3.17245 -3.79587 -3.88998 3.08633 -9.06071 0.656674 4.7013 3.07265 -8.7966 -0.793206 -0.0672977 3.32364 -12.004 -5.89093 
-159.096 97.9297 105.246 2.21101 -1.73874 23.3682 0 0 0 3.14419 0.314978 0.718935 -3.5732 4.38174 1.23778 3.94661 3.37998 -6.2343 -1.01506 1.97847 -4.63076 -30.3205 2.99575 -4.71972 -45.5974 23.114 -11.568 -5.86693 -19.516 -6.57005 -10.79 0.29638 -3.13751 21.525 4.16616 11.3493 56.0174 14.2658 6.87214 3.97167 -4.65403 9.16366 1.67557 0.0605354 3.69368 2.6649 3.35414 7.83332 0.557165 5.28997 1.5723 -3.96928 -7.76257 -0.269403 0.825347 5.05836 -4.10307 -3.72525 3.08267 -8.8804 0.594452 4.78823 3.15583 -8.99225 -0.873977 -0.0734581 3.31593 -11.9352 -6.28672 
-159.117 97.9493 105.236 2.26518 -1.80299 23.39 0 0 0 3.54457 0.242265 0.701776 -4.14044 4.5015 1.34531 4.17709 3.5648 -6.28037 -1.00775 1.97636 -4.59981 -29.9879 3.03458 -4.90157 -45.886 22.7689 -11.4093 -5.79765 -19.2549 -6.65932 -10.6219 0.271203 -2.9168 21.7993 4.24689 11.4968 55.9033 14.0946 6.79013 3.94391 -4.7161 9.18365 1.62939 0.0622428 3.70283 2.64884 3.531 7.82239 0.505537 5.06001 1.54541 -3.76507 -7.55531 -0.24869 0.825826 5.18745 -4.11869 -3.75882 3.08618 -8.94104 0.634445 4.9672 3.19898 -9.09006 -0.968842 -0.0770175 3.29184 -11.8139 -6.3849 
-159.145 97.9412 105.257 2.30272 -1.86743 23.4074 0 0 0 3.17865 0.378005 0.748899 -3.4475 4.42103 1.25504 3.67937 3.59477 -6.26921 -0.884522 2.04169 -4.77848 -30.726 3.05033 -4.77809 -45.3961 22.8989 -11.2728 -5.92666 -19.5445 -7.05463 -10.7408 0.277911 -2.95564 21.2224 4.1338 11.3851 56.3196 13.8121 6.76027 3.867 -4.67797 9.19042 1.83946 0.0636663 3.95881 2.58417 3.67725 7.74578 0.603491 4.91293 1.62006 -3.4915 -7.35499 -0.224477 0.800918 4.32012 -3.93209 -3.76252 3.1353 -8.99427 0.731584 5.05463 3.23806 -9.63854 -0.867561 -0.0726497 3.37118 -12.1808 -6.4492 
-159.196 97.9466 105.285 2.30831 -1.81368 23.5669 0 0 0 3.62927 0.152492 0.691713 -4.25003 4.49485 1.35489 4.39122 3.73743 -6.46881 -1.43479 2.15776 -4.60682 -29.8062 3.03257 -4.93781 -46.0043 22.6948 -11.3094 -5.84737 -19.495 -6.68744 -10.7524 0.287152 -3.05058 21.5836 4.16383 11.3121 56.2866 13.9705 6.6228 3.84903 -4.43085 9.47743 1.7244 0.0646222 3.66044 2.62227 3.56493 7.76932 0.570258 4.95896 1.25265 -3.42933 -7.16585 -0.214793 0.623764 4.11394 -3.25712 -3.70886 3.11444 -8.95389 0.724845 5.01404 2.99113 -9.87063 -0.796916 -0.0688157 3.34803 -12.0713 -6.4589 
-159.234 97.9601 105.279 2.52222 -1.83593 23.6712 0 0 0 3.01131 0.522818 0.691482 -3.32501 4.13934 1.18307 3.38873 4.00833 -6.20665 -0.910197 1.96775 -4.80069 -30.394 2.913 -4.47733 -45.4387 23.4508 -11.6132 -6.09467 -19.8841 -6.64699 -10.4357 0.271573 -2.97316 21.2472 4.14683 11.4191 56.2637 14.1609 6.55316 3.99621 -4.92197 9.3446 1.77179 0.0648 3.71037 2.37628 3.78656 7.56479 0.584819 4.58607 1.42895 -2.60226 -6.67577 -0.151798 0.697751 3.50461 -3.44898 -3.91282 3.22154 -9.14657 0.759666 5.06464 3.17795 -9.89812 -0.862113 -0.0746542 3.3815 -12.2186 -6.59314 
